HIERARCHY
ROOT joint_Root
{
	OFFSET 0.0 0.0 0.0
	CHANNELS 6 Xposition Yposition Zposition Zrotation Xrotation Yrotation 
	JOINT Hips
	{
		OFFSET -0.726466 93.3139 -2.00062
		CHANNELS 6 Xposition Yposition Zposition Zrotation Xrotation Yrotation 
		JOINT Spine
		{
			OFFSET 15.7357 0.0 0.0
			CHANNELS 6 Xposition Yposition Zposition Zrotation Xrotation Yrotation 
			JOINT Chest
			{
				OFFSET 8.98455 -0.406207 0.0
				CHANNELS 6 Xposition Yposition Zposition Zrotation Xrotation Yrotation 
				JOINT Neck
				{
					OFFSET 16.3773 0.0 0.0
					CHANNELS 6 Xposition Yposition Zposition Zrotation Xrotation Yrotation 
					JOINT Head
					{
						OFFSET 6.45672 0.0 0.0
						CHANNELS 6 Xposition Yposition Zposition Zrotation Xrotation Yrotation 
						End Site
						{
							OFFSET 0.0 0.0 0.0
						}
					}
				}
				JOINT Shoulder_L
				{
					OFFSET 12.9942 -0.242716 4.98039
					CHANNELS 6 Xposition Yposition Zposition Zrotation Xrotation Yrotation 
					JOINT UpperArm_L
					{
						OFFSET 5.34809 0.0 0.0
						CHANNELS 6 Xposition Yposition Zposition Zrotation Xrotation Yrotation 
						JOINT LowerArm_L
						{
							OFFSET 24.3286 1.87007e-05 0.0
							CHANNELS 6 Xposition Yposition Zposition Zrotation Xrotation Yrotation 
							JOINT Hand_L
							{
								OFFSET 22.2916 0.0 0.0
								CHANNELS 6 Xposition Yposition Zposition Zrotation Xrotation Yrotation 
								End Site
								{
									OFFSET 0.0 0.0 0.0
								}
							}
						}
					}
				}
				JOINT Shoulder_R
				{
					OFFSET 12.9945 -0.242716 -4.98039
					CHANNELS 6 Xposition Yposition Zposition Zrotation Xrotation Yrotation 
					JOINT UpperArm_R
					{
						OFFSET -5.34813 0.0 0.0
						CHANNELS 6 Xposition Yposition Zposition Zrotation Xrotation Yrotation 
						JOINT LowerArm_R
						{
							OFFSET -24.3289 0.000322201 0.0
							CHANNELS 6 Xposition Yposition Zposition Zrotation Xrotation Yrotation 
							JOINT Hand_R
							{
								OFFSET -22.2915 -0.000108084 0.0
								CHANNELS 6 Xposition Yposition Zposition Zrotation Xrotation Yrotation 
								End Site
								{
									OFFSET 0.0 0.0 0.0
								}
							}
						}
					}
				}
			}
		}
		JOINT UpperLeg_L
		{
			OFFSET -2.19248 -6.46944 0.0
			CHANNELS 6 Xposition Yposition Zposition Zrotation Xrotation Yrotation 
			JOINT LowerLeg_L
			{
				OFFSET 39.0811 0.0 -1.23785e-05
				CHANNELS 6 Xposition Yposition Zposition Zrotation Xrotation Yrotation 
				JOINT Foot_L
				{
					OFFSET 40.9854 0.0 -1.26872e-05
					CHANNELS 6 Xposition Yposition Zposition Zrotation Xrotation Yrotation 
					JOINT Toes_L
					{
						OFFSET 11.7543 0.0 0.0
						CHANNELS 6 Xposition Yposition Zposition Zrotation Xrotation Yrotation 
						End Site
						{
							OFFSET 0.0 0.0 0.0
						}
					}
				}
			}
		}
		JOINT UpperLeg_R
		{
			OFFSET -2.19251 6.46944 0.0
			CHANNELS 6 Xposition Yposition Zposition Zrotation Xrotation Yrotation 
			JOINT LowerLeg_R
			{
				OFFSET -39.0811 -0.00228153 -0.0401928
				CHANNELS 6 Xposition Yposition Zposition Zrotation Xrotation Yrotation 
				JOINT Foot_R
				{
					OFFSET -40.9854 0.0 0.0
					CHANNELS 6 Xposition Yposition Zposition Zrotation Xrotation Yrotation 
					JOINT Toes_R
					{
						OFFSET -11.7543 0.0 0.0
						CHANNELS 6 Xposition Yposition Zposition Zrotation Xrotation Yrotation 
						End Site
						{
							OFFSET 0.0 0.0 0.0
						}
					}
				}
			}
		}
	}
}
MOTION
Frames:	4
Frame Time:	0.0333333
0.000000 0.000000 0.000000 0.000000 0.000000 -0.000000 -2.250280 92.072200 -1.804110 87.432600 0.555769 3.594570 15.735700 0.000005 -0.000001 88.572900 85.125000 -87.802900 8.984550 -0.406207 -0.000000 1.983370 -0.281512 1.543380 16.377300 -0.000001 -0.000001 4.743050 -4.049260 1.463980 6.456720 -0.000001 -0.000000 2.802520 -3.385770 -4.247010 12.994200 -0.242716 4.980390 -89.976100 -0.072885 -71.819800 5.348090 -0.000007 -0.000001 -65.719100 43.275300 -13.851400 24.328600 0.000019 0.000005 4.031290 7.543730 -28.227500 22.291600 -0.000001 0.000005 6.078600 5.570490 -9.713310 12.994500 -0.242716 -4.980390 88.039900 5.126240 -69.042300 -5.348130 -0.000001 -0.000004 -66.535900 31.875700 -14.649100 -24.328900 0.000322 -0.000009 0.143949 0.410711 -19.446200 -22.291500 -0.000108 -0.000004 6.800510 5.507060 -6.820590 -2.192480 -6.469440 -0.000000 -168.019000 -14.032900 -2.357110 39.081100 -0.000007 -0.000012 -0.177559 0.466009 20.858100 40.985400 -0.000006 -0.000013 -6.430290 4.617410 -63.163600 11.754300 -0.000000 0.000003 -0.000034 -0.000405 -16.593400 -2.192510 6.469440 -0.000001 175.753000 20.946800 179.579000 -39.081100 -0.002282 -0.040193 -0.036157 0.109303 19.859200 -40.985400 0.000008 0.000006 -1.651060 2.194940 -64.194600 -11.754300 -0.000006 -0.000006 -0.006214 -0.072769 -19.534800
0.000000 0.000000 0.000000 0.000000 0.000000 -0.000000 -2.224580 92.066700 -1.846040 87.431600 0.533818 3.637630 15.735700 0.000005 -0.000001 88.391600 85.076700 -87.649600 8.984550 -0.406207 -0.000000 2.079160 -0.312990 1.488410 16.377300 -0.000001 -0.000001 4.656450 -3.955730 1.288180 6.456720 -0.000001 -0.000000 2.600980 -3.282910 -4.370580 12.994200 -0.242716 4.980390 -89.913800 -0.263476 -71.872000 5.348090 -0.000007 -0.000001 -64.873700 44.766400 -14.090600 24.328600 0.000019 0.000005 4.383810 7.799390 -29.462600 22.291600 -0.000001 0.000005 6.012360 5.575660 -9.981900 12.994500 -0.242716 -4.980390 88.057500 5.073200 -69.016400 -5.348130 -0.000001 -0.000004 -65.882500 30.750600 -15.049700 -24.328900 0.000322 -0.000009 0.014618 0.043320 -19.903500 -22.291500 -0.000108 -0.000004 7.240060 5.508730 -6.888810 -2.192480 -6.469440 -0.000000 -168.024000 -14.057900 -2.372310 39.081100 -0.000007 -0.000012 -0.178894 0.467475 20.941200 40.985400 -0.000006 -0.000013 -6.402360 4.642480 -63.188000 11.754300 -0.000000 0.000003 -0.000036 -0.000422 -16.594000 -2.192510 6.469440 -0.000001 175.706000 20.978900 179.586000 -39.081100 -0.002282 -0.040193 -0.038988 0.116976 19.884800 -40.985400 0.000008 0.000006 -1.754910 2.284910 -64.164800 -11.754300 -0.000006 -0.000006 -0.006003 -0.070864 -19.457200
0.000000 0.000000 0.000000 0.000000 0.000000 -0.000000 -2.194250 92.069000 -1.869910 87.426300 0.490107 3.738180 15.735700 0.000005 -0.000001 87.998100 84.992300 -87.273200 8.984550 -0.406207 -0.000000 2.246140 -0.384513 1.455830 16.377300 -0.000001 -0.000001 4.552190 -3.807760 1.101510 6.456720 -0.000001 -0.000000 2.304720 -3.032640 -4.719150 12.994200 -0.242716 4.980390 -89.827800 -0.527961 -71.932400 5.348090 -0.000007 -0.000001 -63.468800 47.024200 -14.495100 24.328600 0.000019 0.000005 4.593860 7.582140 -31.339400 22.291600 -0.000001 0.000005 5.945250 5.586170 -10.547700 12.994500 -0.242716 -4.980390 88.101800 4.943290 -68.962700 -5.348130 -0.000001 -0.000004 -65.000900 29.003300 -15.713300 -24.328900 0.000322 -0.000009 -0.111534 -0.294489 -20.560800 -22.291500 -0.000108 -0.000004 7.731390 5.512930 -7.062790 -2.192480 -6.469440 -0.000000 -168.013000 -14.068100 -2.289490 39.081100 -0.000007 -0.000012 -0.179520 0.468556 20.963800 40.985400 -0.000006 -0.000013 -6.385380 4.616440 -63.190400 11.754300 -0.000000 0.000003 -0.000039 -0.000455 -16.595300 -2.192510 6.469440 -0.000001 175.676000 20.977200 179.654000 -39.081100 -0.002282 -0.040193 -0.034560 0.104573 19.912900 -40.985400 0.000008 0.000006 -1.626990 2.309040 -64.160700 -11.754300 -0.000006 -0.000006 -0.006199 -0.072636 -19.529400
0.000000 0.000000 0.000000 0.000000 0.000000 -0.000000 -2.157780 92.078800 -1.911850 87.437500 0.362714 3.841760 15.735700 0.000005 -0.000001 87.467600 84.908700 -86.756600 8.984550 -0.406207 -0.000000 2.410060 -0.482781 1.430710 16.377300 -0.000001 -0.000001 4.493410 -3.595660 0.834124 6.456720 -0.000001 -0.000000 1.964650 -2.646860 -5.136900 12.994200 -0.242716 4.980390 -89.787200 -0.651120 -71.902700 5.348090 -0.000007 -0.000001 -60.933000 50.002400 -15.177300 24.328600 0.000019 0.000005 5.051900 7.408960 -34.432700 22.291600 -0.000001 0.000005 5.678070 5.602960 -11.520000 12.994500 -0.242716 -4.980390 88.155600 4.780920 -68.875600 -5.348130 -0.000001 -0.000004 -63.746400 26.865800 -16.660500 -24.328900 0.000322 -0.000009 -0.266468 -0.670283 -21.598200 -22.291500 -0.000108 -0.000004 8.817840 5.511980 -7.022870 -2.192480 -6.469440 -0.000000 -168.024000 -14.136300 -2.157580 39.081100 -0.000007 -0.000012 -0.177390 0.463823 20.929700 40.985400 -0.000006 -0.000013 -6.361990 4.572030 -63.170400 11.754300 -0.000000 0.000003 -0.000032 -0.000383 -16.592500 -2.192510 6.469440 -0.000001 175.645000 20.913100 179.698000 -39.081100 -0.002282 -0.040193 -0.028214 0.086940 19.937300 -40.985400 0.000008 0.000006 -1.418290 2.319280 -64.139200 -11.754300 -0.000006 -0.000006 -0.006252 -0.073106 -19.548600
